<svg version="1" xmlns="http://www.w3.org/2000/svg" width="325.333" height="325.333" viewBox="0 0 244.000000 244.000000"><path d="M101.7 1.9c-.2 1 1.1 6.7 3 12.6 1.9 5.9 3.2 10.9 2.9 11.2-.3.3-4.3 1.2-8.8 1.9-4.6.7-9.6 1.6-11.3 1.8-1.6.3-7.7 1.4-13.5 2.6-5.8 1.1-12.1 2.3-14 2.6-26 4-41.8 9.3-47.9 15.8C7.8 55 5.9 64.2 9.2 64.8c1.2.2 2.4-1 3.8-4.1 2.1-4.5 6.9-8.5 12.8-10.8 3-1.2 17.4-4.8 46.2-11.4 33.2-7.6 36.9-8.3 37.8-7.1 1.1 1.4 16.6 51.7 23.1 74.6 14.1 49.5 16.3 63.5 13.5 83.5-2.9 20.9-10.3 38.5-19 45.2-18.8 14.3-70.1-35.9-82.8-81.2-2.3-8.1-2.5-10.4-2.2-22.5.7-20.2 3.9-29.4 13.3-38 5.5-5.1 16.9-11.2 27.1-14.5 7.2-2.3 6-2.9-2.4-1.1-24.8 5.3-40.9 18.7-45.9 38.4-2 7.5-2.2 21.8-.5 29.7 5 23.6 23.3 54.8 44.1 75.2 24.6 24.1 45.9 29.7 59.4 15.7 12.2-12.5 19.8-45.2 16.5-71.1-3-24.3-9.6-50.5-30-118.5-2.9-9.8-5.1-18-4.9-18.3.3-.2 12.9-2.5 28-4.9 44.8-7.3 53.7-8.7 65.4-10.1 2.8-.3 6.6-.8 8.5-1 1.9-.3 6.2-.7 9.5-1.1 9.4-1 8-1.6-2-.9-12.2.9-22 1.9-38.5 4-1.9.2-5.7.7-8.5 1.1-2.7.3-5.7.8-6.6.9-.9.2-4 .6-7 .9-3 .4-8.3 1.1-11.9 1.6-3.6.5-8.3 1.2-10.5 1.5-8 1.1-24.1 3.6-26.1 4-1.9.4-2.5-.6-5.4-8.8-4.1-11.9-10.8-19.4-12.3-13.8z"/></svg>